<svg width="20" height="20" viewBox="0 0 20 20" fill="none" xmlns="http://www.w3.org/2000/svg">
<path d="M11.8614 5.78697C11.851 6.39024 11.8592 6.99295 11.8592 7.61743C11.9451 7.62124 12.0164 7.62777 12.0882 7.62777C12.7937 7.62831 13.4998 7.62722 14.2059 7.62831C14.6334 7.6294 14.739 7.73439 14.7395 8.15433C14.7406 8.96212 14.7411 9.76992 14.7395 10.5777C14.7384 10.952 14.6454 11.0466 14.269 11.0482C13.5493 11.0515 12.8302 11.0493 12.1105 11.0493H11.8603V17.676C11.8603 18.2749 11.8015 18.3325 11.1928 18.3325C10.4188 18.3325 9.64523 18.3331 8.8717 18.332C8.44197 18.3315 8.34242 18.233 8.34188 17.8065C8.34133 15.6551 8.34188 13.5032 8.34188 11.3512V11.0869C8.25919 11.082 8.18793 11.0744 8.11667 11.0744C7.52647 11.0733 6.93571 11.0749 6.34551 11.0733C5.9359 11.0716 5.8369 10.9764 5.83581 10.5706C5.83254 9.77645 5.83309 8.98225 5.83526 8.18806C5.83635 7.76594 5.93318 7.67128 6.3504 7.67074C6.93408 7.6702 7.51776 7.67074 8.10144 7.67074H8.34188C8.34188 7.57011 8.34079 7.49069 8.34188 7.41127C8.35602 6.63774 8.32828 5.86095 8.39355 5.09232C8.55892 3.15742 10.0467 1.7567 11.9908 1.68381C12.8041 1.65335 13.6189 1.67075 14.4338 1.67293C14.7031 1.67402 14.8184 1.79043 14.82 2.06133C14.8244 2.86912 14.8244 3.67691 14.82 4.48471C14.8184 4.75941 14.7052 4.86821 14.4104 4.87528C13.861 4.88834 13.311 4.88888 12.7616 4.89704C12.1241 4.90683 11.8728 5.14781 11.8614 5.78697Z" fill="#555555"/>
</svg>
